<svg width="293" height="56" viewBox="0 0 293 56" fill="none" xmlns="http://www.w3.org/2000/svg">
<g clip-path="url(#clip0_2712_13151)">
<path d="M14.8705 23.8196C7.71499 23.8196 4.01581 20.6465 0.75208 17.8469C-0.151379 17.072 -0.255583 15.7114 0.519427 14.8079C1.29433 13.9043 2.65501 13.8002 3.55847 14.5752C6.64493 17.2228 9.31048 19.5092 14.8705 19.5092C20.4307 19.5092 23.0964 17.2227 26.1831 14.5752C29.447 11.7756 33.1464 8.60254 40.302 8.60254C47.4574 8.60254 51.1568 11.7754 54.4207 14.575C55.3242 15.3498 55.4286 16.7106 54.6536 17.6141C53.8787 18.5176 52.5182 18.6221 51.6147 17.8469C48.5279 15.1994 45.8621 12.9129 40.302 12.9129C34.7417 12.9129 32.0761 15.1995 28.9894 17.8469C25.7254 20.6465 22.026 23.8196 14.8705 23.8196ZM28.9894 29.6352C32.0761 26.9878 34.7418 24.7012 40.302 24.7012C45.8623 24.7012 48.5281 26.9878 51.6147 29.6352C52.5182 30.4101 53.8788 30.306 54.6537 29.4026C55.4286 28.499 55.3245 27.1384 54.4209 26.3635C51.157 23.564 47.4576 20.3908 40.302 20.3908C33.1464 20.3908 29.447 23.5639 26.1831 26.3635C23.0964 29.011 20.4307 31.2975 14.8705 31.2975C9.31037 31.2975 6.64493 29.0111 3.55847 26.3635C2.65501 25.5886 1.29444 25.6926 0.519427 26.5962C-0.255583 27.4996 -0.151379 28.8603 0.75208 29.6352C4.01591 32.4347 7.7151 35.6079 14.8705 35.6079C22.026 35.6078 25.7254 32.4347 28.9894 29.6352ZM28.9894 41.4234C32.0761 38.776 34.7418 36.4894 40.302 36.4894C45.8623 36.4894 48.5281 38.776 51.6147 41.4234C52.5182 42.1983 53.8788 42.0942 54.6537 41.1908C55.4286 40.2872 55.3245 38.9266 54.4209 38.1517C51.157 35.3522 47.4576 32.179 40.302 32.179C33.1464 32.179 29.447 35.3521 26.1831 38.1517C23.0964 40.7992 20.4307 43.0857 14.8705 43.0857C9.3107 43.0857 6.64504 40.7993 3.55858 38.1519L3.55836 38.1517C2.6549 37.377 1.29444 37.4811 0.519427 38.3845C-0.255475 39.2879 -0.151271 40.6486 0.752188 41.4235C4.01602 44.2231 7.71531 47.3961 14.8705 47.3961C22.026 47.3961 25.7254 44.223 28.9894 41.4234Z" fill="url(#paint0_linear_2712_13151)"/>
</g>
<path d="M75.085 14.5186V27.7461C75.085 28.6234 75.159 29.4209 75.3071 30.1387C75.4552 30.8451 75.7287 31.4546 76.1274 31.9673C76.5262 32.4686 77.0845 32.8617 77.8022 33.1465C78.52 33.4199 79.4543 33.5566 80.605 33.5566C81.4709 33.5566 82.3766 33.437 83.3223 33.1978C84.2793 32.9585 85.2249 32.6395 86.1592 32.2407C87.0934 31.842 87.9821 31.3862 88.8252 30.8735C89.6797 30.3494 90.443 29.8083 91.1152 29.25V14.5186H97.4385V38H91.1152V34.7871C90.3177 35.2428 89.4689 35.7043 88.5688 36.1714C87.6688 36.6271 86.7118 37.043 85.6978 37.4189C84.6838 37.7835 83.6071 38.0798 82.4678 38.3076C81.3285 38.5469 80.1265 38.6665 78.8618 38.6665C77.2782 38.6665 75.8597 38.4728 74.6064 38.0854C73.3532 37.7095 72.2936 37.174 71.4277 36.479C70.5618 35.7726 69.8953 34.9238 69.4282 33.9326C68.9725 32.93 68.7446 31.8135 68.7446 30.583V14.5186H75.085ZM127.175 38V24.8408C127.175 23.9635 127.101 23.1717 126.953 22.4653C126.805 21.7476 126.525 21.138 126.115 20.6367C125.716 20.124 125.153 19.731 124.423 19.4575C123.706 19.1727 122.777 19.0303 121.638 19.0303C120.772 19.0303 119.86 19.1499 118.903 19.3892C117.958 19.617 117.018 19.9246 116.083 20.312C115.149 20.6994 114.255 21.1494 113.4 21.6621C112.557 22.1748 111.805 22.7103 111.145 23.2686V38H104.804V14.5186H111.145V17.7314C111.942 17.2757 112.791 16.8257 113.691 16.3813C114.591 15.9256 115.548 15.5155 116.562 15.1509C117.576 14.7863 118.653 14.4901 119.792 14.2622C120.931 14.0343 122.133 13.9204 123.398 13.9204C124.982 13.9204 126.394 14.1141 127.636 14.5015C128.889 14.8774 129.949 15.4186 130.815 16.125C131.681 16.82 132.342 17.6688 132.797 18.6714C133.264 19.6626 133.498 20.7734 133.498 22.0039V38H127.175ZM140.761 38V14.5186H147.102V38H140.761ZM165.559 19.5259C164.818 19.5259 164.152 19.5544 163.559 19.6113C162.978 19.6683 162.482 19.805 162.072 20.0215C161.662 20.238 161.349 20.5627 161.132 20.9956C160.916 21.4172 160.808 21.9982 160.808 22.7388V23.6104H178.513V28.6177H160.808V38H154.467V22.209C154.467 21.0013 154.644 19.9189 154.997 18.9619C155.362 18.0049 155.965 17.2017 156.809 16.5522C157.652 15.8914 158.768 15.3901 160.158 15.0483C161.548 14.6951 163.28 14.5186 165.354 14.5186H179.35V19.5259H165.559ZM191.125 27.9512C191.125 28.931 191.216 29.7342 191.398 30.3608C191.581 30.9761 191.877 31.466 192.287 31.8306C192.697 32.1951 193.227 32.4458 193.876 32.5825C194.537 32.7192 195.346 32.7876 196.303 32.7876H208.334V38H195.004C193.159 38 191.586 37.8519 190.288 37.5557C189 37.248 187.946 36.7809 187.126 36.1543C186.306 35.5163 185.708 34.7131 185.332 33.7446C184.967 32.7762 184.785 31.6255 184.785 30.2925V14.5186H191.125V27.9512ZM243.813 26.2764C243.813 28.293 243.443 30.076 242.702 31.6255C241.962 33.1636 240.902 34.451 239.523 35.4878C238.145 36.5246 236.47 37.3107 234.499 37.8462C232.539 38.3703 230.335 38.6323 227.885 38.6323C225.436 38.6323 223.22 38.3703 221.237 37.8462C219.266 37.3107 217.586 36.5246 216.196 35.4878C214.806 34.451 213.735 33.1636 212.983 31.6255C212.231 30.076 211.855 28.293 211.855 26.2764C211.855 24.2598 212.231 22.4824 212.983 20.9443C213.735 19.3949 214.806 18.1017 216.196 17.0649C217.586 16.0282 219.266 15.2477 221.237 14.7236C223.22 14.1882 225.436 13.9204 227.885 13.9204C230.335 13.9204 232.539 14.1882 234.499 14.7236C236.47 15.2477 238.145 16.0282 239.523 17.0649C240.902 18.1017 241.962 19.3949 242.702 20.9443C243.443 22.4824 243.813 24.2598 243.813 26.2764ZM237.404 26.2764C237.404 25.3991 237.262 24.5275 236.977 23.6616C236.704 22.7843 236.208 21.9982 235.49 21.3032C234.784 20.6082 233.815 20.0443 232.585 19.6113C231.354 19.1784 229.788 18.9619 227.885 18.9619C226.609 18.9619 225.487 19.0645 224.519 19.2695C223.55 19.4632 222.713 19.7367 222.006 20.0898C221.3 20.443 220.708 20.8589 220.229 21.3374C219.75 21.8045 219.369 22.3115 219.084 22.8584C218.799 23.3939 218.594 23.9578 218.469 24.5503C218.355 25.1313 218.298 25.7067 218.298 26.2764C218.298 26.8574 218.355 27.4442 218.469 28.0366C218.594 28.6291 218.799 29.1987 219.084 29.7456C219.369 30.2811 219.75 30.7824 220.229 31.2495C220.708 31.7166 221.3 32.1268 222.006 32.48C222.713 32.8218 223.55 33.0952 224.519 33.3003C225.487 33.494 226.609 33.5908 227.885 33.5908C229.788 33.5908 231.354 33.3743 232.585 32.9414C233.815 32.5085 234.784 31.9445 235.49 31.2495C236.208 30.5545 236.704 29.7741 236.977 28.9082C237.262 28.0309 237.404 27.1536 237.404 26.2764ZM272.233 14.5186L278.232 30.8223L284.726 14.5186H291.306L281.872 38H274.831L268.696 22.209L262.578 38H255.537L246.086 14.5186H252.683L259.04 30.4805L265.175 14.5186H272.233Z" fill="url(#paint1_linear_2712_13151)"/>
<defs>
<linearGradient id="paint0_linear_2712_13151" x1="29.9034" y1="47.3961" x2="27.5866" y2="8.60254" gradientUnits="userSpaceOnUse">
<stop stop-color="#0074FF"/>
<stop offset="0.508068" stop-color="#FF00E5"/>
<stop offset="1" stop-color="#FED500"/>
</linearGradient>
<linearGradient id="paint1_linear_2712_13151" x1="178.673" y1="10" x2="178.673" y2="46" gradientUnits="userSpaceOnUse">
<stop stop-color="#DADADA"/>
<stop offset="0.0001" stop-color="white" stop-opacity="0"/>
<stop offset="0.0002" stop-color="white" stop-opacity="0.578305"/>
<stop offset="0.0003" stop-color="white"/>
<stop offset="0.0004" stop-color="white"/>
<stop offset="0.911458" stop-color="#DADADA"/>
<stop offset="1" stop-color="#DADADA"/>
</linearGradient>
<clipPath id="clip0_2712_13151">
<rect y="0.413086" width="55.1731" height="55.1731" fill="white"/>
</clipPath>
</defs>
</svg>
